<?xml version="1.0" standalone="no"?>
<!DOCTYPE svg PUBLIC "-//W3C//DTD SVG 20010904//EN"
 "http://www.w3.org/TR/2001/REC-SVG-20010904/DTD/svg10.dtd">
<svg version="1.0" xmlns="http://www.w3.org/2000/svg"
 width="900.000000pt" height="700.000000pt" viewBox="0 0 900.000000 700.000000"
 preserveAspectRatio="xMidYMid meet">

<g transform="translate(0.000000,700.000000) scale(0.100000,-0.100000)"
fill="#000000" stroke="none">
<path d="M4510 6983 c-260 -51 -460 -301 -460 -573 0 -165 64 -314 184 -428
67 -63 195 -142 231 -142 19 0 25 -72 25 -280 l0 -187 -177 -6 c-725 -25
-1481 -299 -2023 -733 -125 -101 -337 -311 -436 -435 l-87 -108 -126 -42
c-232 -77 -444 -169 -751 -327 -347 -178 -472 -257 -601 -379 -180 -172 -271
-354 -286 -575 -11 -165 36 -340 129 -484 87 -134 274 -303 443 -400 28 -15
79 -49 115 -74 234 -164 520 -303 895 -435 102 -36 189 -65 194 -65 5 0 60
-16 123 -36 158 -49 545 -144 783 -192 651 -131 1309 -202 1860 -202 899 1
1850 138 2625 380 91 29 180 56 198 61 167 50 589 227 832 350 409 207 685
498 772 815 17 64 22 106 21 219 0 123 -3 151 -26 228 -122 402 -522 740
-1196 1012 -142 57 -351 129 -492 169 -46 14 -61 24 -91 64 -64 83 -215 243
-310 330 -114 103 -319 257 -453 341 -129 81 -426 226 -580 284 -246 93 -547
170 -790 202 -66 9 -140 19 -165 23 l-45 7 -3 236 -2 235 74 38 c91 46 180
125 235 206 132 199 130 464 -5 663 -140 204 -371 292 -634 240z m-3067 -3508
c163 -42 267 -146 267 -267 -1 -164 -177 -288 -410 -288 -141 0 -243 35 -327
113 -61 56 -83 103 -83 174 0 123 99 224 263 268 69 18 219 19 290 0z m6587
-35 c82 -13 193 -66 244 -116 147 -146 72 -349 -159 -428 -69 -24 -209 -32
-286 -17 -162 32 -281 131 -303 252 -14 76 36 172 121 230 106 73 242 101 383
79z m-5338 -709 c342 -88 469 -376 255 -579 -258 -243 -797 -185 -944 102 -38
74 -38 170 0 244 53 101 140 169 281 217 95 33 95 33 222 34 80 1 132 -4 186
-18z m4192 -1 c110 -28 206 -81 270 -151 159 -171 93 -398 -148 -514 -97 -46
-182 -65 -302 -65 -210 0 -391 78 -484 208 -147 205 -2 448 315 528 81 20 259
17 349 -6z m-2158 -275 c161 -47 282 -135 341 -248 24 -45 28 -64 28 -137 0
-70 -4 -94 -25 -135 -53 -108 -185 -205 -350 -256 -98 -31 -317 -34 -420 -6
-108 29 -228 94 -290 156 -82 82 -105 136 -105 241 0 74 4 92 29 139 70 135
240 239 441 271 97 15 249 4 351 -25z"/>
<path d="M2165 980 c62 -71 355 -282 530 -382 936 -534 2163 -616 3185 -211
261 103 451 204 685 364 104 71 289 218 282 225 -2 2 -59 -10 -128 -27 -931
-227 -2002 -303 -3039 -214 -478 41 -922 114 -1375 226 -66 17 -129 33 -140
36 l-20 6 20 -23z"/>
</g>
</svg>
