<?xml version="1.0" encoding="UTF-8"?>
<svg width="60pt" height="60pt" version="1.0" viewBox="0 0 60 60" xmlns="http://www.w3.org/2000/svg">
 <defs>
  <clipPath id="clipPath895">
   <path d="m53.745 478.37c0.50239-1.6988 0.62715-3.5017 0.35156-5.3027 0.80639-0.0263 1.8109-4e-3 2.4023-0.0879v5.3906zm2.7539-10.195c-0.50494-0.38543-1.0545-0.77336-1.6699-1.1865 0.55718-0.33683 1.1132-0.67253 1.6699-1.0108zm-52.163-26.851v-17.827h13.828c-2.14 1.442-3.9667 3.394-5.3467 5.9912-0.42386 0.35625-0.19083 0.16095-1.5234 1.2744-0.2054 0.24158-0.35194 0.4203-0.542 0.64455-1.2624 1.0186-2.3318 2.2211-3.0615 3.7354-0.00967 0.0202-0.019725 0.0383-0.029325 0.0585-1.3906 1.8565-2.2353 3.5351-3.3252 6.1231zm52.163-7.5146c-1.4097-0.60128-2.9603-1.1057-4.6582-1.4941-0.41328-0.60301-0.7703-1.0889-0.67383-0.64456 0.03728 0.17153 0.07275 0.34215 0.11719 0.5127-0.42502-0.0892-0.86128-0.15982-1.3037-0.23437-0.28679-0.6825-0.83519-1.4554-0.64453-1.04 0.1558 0.33945 0.32458 0.6726 0.4834 1.0107-0.54427-0.0891-1.0995-0.1536-1.6699-0.21975-1.3442-1.3798-2.6812-2.7687-4.0283-4.1455 3.2035 0.16155 3.958-0.59302-3.3545-3.3838-0.22827-0.22462-0.45886-0.45015-0.68848-0.6738h16.421zm-6.6797-1.8896c0.05355 9e-3 0.10785 0.0202 0.16113 0.0292 0.10468 0.24915 0.181 0.47895 0.16113 0.64455-0.10682-0.225-0.21639-0.44843-0.32227-0.6738zm-5.8887-1.8604c-0.64702-0.0473-1.2912-0.1212-1.9336-0.20505-0.4763-2.1782-1.2697-3.3645-2.5195-2.0068-0.04823 0.0525-0.08709 0.10763-0.13184 0.1611-0.11254-0.3738-0.23126-0.74407-0.35156-1.1133 1.1472 0.2016 2.3069 0.39443 3.3545 0.5127 1.2709 0.86178 2.6276 2.7277 1.582 2.6514z" fill="#f00"/>
  </clipPath>
  <clipPath id="clipPath907">
   <path d="m149.99 595.69c-0.34777-0.15521-0.70657-0.30566-1.084-0.46875 0.3429-0.0696 0.68295-0.14827 1.0254-0.21973 0.0165 0.23035 0.0405 0.45878 0.0585 0.68848zm19.438-14.37c-0.0908 2e-3 -0.2256-0.0335-0.35152-0.0586-0.43328-0.21158-0.89049-0.43665-1.377-0.65919 0.0637-0.18084 0.11813-0.35987 0.1758-0.54199 0.16013-3e-3 0.3177-5e-3 0.48338-0.0146-0.1611 1e-5 -0.32228 0-0.48338 0 0.15495-0.49122 0.2874-0.9809 0.39548-1.4795 1.3035 1.514 2.03 2.7388 1.1572 2.7539zm-1.5527-1.2744v0.0146c-0.2193 4e-3 -0.43508-5e-3 -0.64455-0.0146 0.21487 1e-5 0.42967 0 0.64455 0zm8.6279-29.854c-0.43095-0.16686-0.87541-0.32114-1.3476-0.46875-2.2054-0.68932-4.5292-0.88984-6.7969-1.333-2.319 1.7e-4 -4.639 6.4e-4 -6.958 0-0.6939-0.61967-1.4588-1.1548-2.2852-1.5527-1.8044-0.86894-3.7144-1.509-5.625-2.124-0.37673-0.21795-0.77781-0.41684-1.1719-0.62988-0.23685-0.1917-0.4671-0.39311-0.70312-0.58594h24.888zm-24.185-6.1084c0.17543 0.14198 0.35153 0.28326 0.52733 0.42481-0.82396-0.26425-1.6441-0.53791-2.4609-0.82031-0.0465-0.0618-0.0882-0.1267-0.13185-0.19043h0.9375c0.37673 0.1918 0.75743 0.38562 1.1279 0.58593zm-1.9336-0.3955c0.78901 1.0526 1.53 2.1505 2.2559 3.2666-2.5037-0.93028-4.9883-1.8598-6.9287-3.457h4.1455c0.17647 0.0619 0.35062 0.12933 0.52732 0.19043zm2.4609 0.82031c0.21473 0.0688 0.42998 0.13601 0.64455 0.20508 1.5158 0.87695 2.8478 1.7801 3.6621 2.5342 0.25545 0.23655 0.5184 0.65121 0.77637 1.1426-0.083 1e-5 -0.16605-1e-5 -0.249 0-1.6118-1.2979-3.222-2.5841-4.834-3.8818z" fill="#f00"/>
  </clipPath>
  <clipPath id="clipPath931">
   <path d="m99.067 293.96c0.09345-0.35393 0.1944-0.70193 0.29295-1.0547-0.0019 0.10747 0.0021 0.2148 0 0.32227-0.0031 0.15428-0.20895 0.55755-0.29295 0.73245zm2.0654-22.236c7e-3 -0.47873 0.027-0.95808 0.0292-1.4356-0.1647-0.66292 0.0525-1.8304 0.11723-2.9736 1.5542 2.9828 1.3055 4.2582-0.14648 4.4092zm-43.608-7.4561v-10.093h11.411c-0.96398 0.98355-1.7339 1.6855-2.5635 2.4756-0.895 0.0518-1.4075 0.47318-1.4209 1.3623-6.6e-5 4e-3 4.3e-5 0.0105 0 0.015-3.8337 3.5104-6.1138 4.9849-7.4268 6.2399zm45.996-9.0674c-0.3936-0.35828-0.79029-0.7026-1.1865-1.0254h1.1865zm-9.7119-0.54203c-0.85075-0.16522-1.6207-0.3255-2.4023-0.48337h2.0801c0.10725 0.1605 0.21735 0.32092 0.32228 0.48337z" fill="#f00"/>
  </clipPath>
  <clipPath id="clipPath955">
   <path d="m590.61 268.49c-0.20565-0.50445-0.3096-0.75404-0.55665-1.3623-0.12052-0.2967-0.2352-0.6186-0.35152-0.92285 0.48202-0.88338 1.0105-1.7478 1.5674-2.5928 0.4713 1.1961 0.67185 2.4735 0.73245 3.794-0.47235 0.3672-0.9355 0.7353-1.3916 1.084zm-44.253-19.731c-0.15315-0.2373-0.3111-0.47115-0.46875-0.70313-0.2487-0.366-1.0246-1.4124-0.6738-1.1426 0.47963 0.36893 0.72278 0.9647 1.084 1.4502 0.0165 0.14303 0.042 0.25613 0.0585 0.39548zm45-6.1084c-0.22545-0.24885-0.43882-0.50783-0.65917-0.76172-0.387-0.53115-0.50873-0.6807 0.65917 0.76172z" fill="#f00"/>
  </clipPath>
 </defs>
 <g transform="translate(0 60) scale(.1 -.1)">
  <path d="m132 584c-11-12-10-17 2-30 15-14 17-14 32 0 14 14 14 18 0 31-18 18-18 18-34-1z" clip-path="url(#clipPath907)"/>
  <path d="m356 592c-2-4 22-36 55-71 32-35 59-67 59-71 0-16-31-40-51-40-25 0-24-8 7-36 32-30 34-30 69 6 59 62 38 173-40 206-37 15-91 19-99 6z"/>
  <path d="m290 538c-14-23-20-47-18-78l3-45 48-6c50-5 61 1 63 36 1 11 4 27 8 36 8 19-47 89-70 89-8 0-23-15-34-32z"/>
  <path d="m12 464c-11-12-10-17 2-30 15-14 17-14 32 0 14 14 14 18 0 31-18 18-18 18-34-1z" clip-path="url(#clipPath895)"/>
  <path d="m407 464c-9-9 4-34 18-34s27 25 18 34c-4 3-12 6-18 6s-14-3-18-6z"/>
  <path d="m140 405c-23-28-4-60 53-88 29-14 65-29 80-32 15-4 27-12 27-17 0-6-9-8-20-5-23 6-27-8-5-17 27-10 16-23-15-18-17 2-44-1-60-8-30-12-70-54-70-71 0-5 18-21 40-35 34-23 44-25 63-16 12 6 40 13 62 14 39 3 41 5 77 78 21 41 38 82 38 91s-12 21-26 28c-36 16-23 26 15 13 28-10 31-9 31 8 0 22-65 60-102 60-21 0-21 0-2-15 35-27-11-18-76 15-66 34-92 37-110 15z"/>
  <path d="m63 290c-17-26 9-49 31-27 13 13 13 17-2 30-16 15-19 15-29-3z" clip-path="url(#clipPath931)"/>
  <path d="m446 301c-12-19-76-173-76-183 0-5 14-8 32-6 28 3 36 10 60 58 15 30 28 69 28 85 0 41-29 71-44 46zm2-86c-10-21-28-35-28-21 0 18 22 56 30 51 6-4 5-15-2-30zm-28-55c0-5-2-10-4-10-3 0-8 5-11 10-3 6-1 10 4 10 6 0 11-4 11-10z"/>
  <path d="m551 266c-9-10-8-16 4-26 19-16 50 11 32 29-14 14-22 14-36-3z" clip-path="url(#clipPath955)"/>
  <path d="m73 129c-16-6-23-17-23-34 0-22 9-30 54-51 56-25 80-24 91 4 11 30-86 95-122 81z"/>
  <path d="m449 85c-24-19-47-35-50-35-4 0-10 10-14 23-6 19-8 20-12 4-14-52 25-61 77-17 19 17 38 30 42 30 5 0 7-19 6-41-2-25 2-44 8-46 13-5 44 23 44 40 0 8-4 7-12-1-20-20-27-14-21 21 3 22 0 37-10 45-11 10-22 5-58-23z"/>
 </g>
</svg>
