<?xml version="1.0" standalone="no"?>
<!DOCTYPE svg PUBLIC "-//W3C//DTD SVG 20010904//EN"
 "http://www.w3.org/TR/2001/REC-SVG-20010904/DTD/svg10.dtd">
<svg version="1.0" xmlns="http://www.w3.org/2000/svg"
 width="512.000000pt" height="512.000000pt" viewBox="0 0 512.000000 512.000000"
 preserveAspectRatio="xMidYMid meet">

<g transform="translate(0.000000,512.000000) scale(0.100000,-0.100000)"
fill="#000000" stroke="none">
<path d="M983 5105 c-212 -46 -382 -214 -438 -431 -14 -54 -15 -286 -13 -2140
l3 -2079 23 -62 c65 -173 204 -308 374 -364 l73 -24 1555 0 1555 0 73 24 c172
56 314 197 374 369 l23 67 0 2095 0 2095 -23 67 c-59 170 -191 303 -363 366
l-74 27 -1540 2 c-1265 1 -1551 -1 -1602 -12z m986 -760 c248 -59 441 -302
441 -555 0 -109 -47 -248 -116 -341 l-36 -49 69 0 c118 -1 205 -57 243 -157
18 -48 20 -78 20 -297 0 -275 -6 -309 -69 -374 -79 -81 -44 -77 -691 -77 -570
0 -575 0 -615 22 -52 28 -100 78 -122 128 -14 33 -18 76 -21 250 -5 269 0 318
41 386 47 79 108 113 209 118 43 2 78 5 78 8 0 3 -13 22 -29 42 -94 120 -133
310 -96 468 49 207 217 378 421 427 78 19 194 19 273 1z m1949 -1401 c168 -84
168 -325 0 -408 l-52 -26 -430 0 -431 0 -52 24 c-170 80 -171 325 -2 410 l53
26 431 0 431 0 52 -26z m-3 -871 c171 -92 171 -324 0 -416 l-40 -22 -1315 0
-1315 0 -40 22 c-82 44 -128 119 -128 208 0 107 66 193 173 226 14 4 610 7
1325 6 l1300 -2 40 -22z m22 -886 c160 -103 136 -338 -41 -412 -53 -22 -2619
-22 -2672 0 -140 58 -191 222 -108 347 24 37 82 81 120 91 10 3 613 4 1339 3
l1320 -1 42 -28z"/>
</g>
</svg>
