<?xml version="1.0" standalone="no"?>
<!DOCTYPE svg PUBLIC "-//W3C//DTD SVG 20010904//EN"
 "http://www.w3.org/TR/2001/REC-SVG-20010904/DTD/svg10.dtd">
<svg version="1.0" xmlns="http://www.w3.org/2000/svg"
 width="453.000000pt" height="453.000000pt" viewBox="0 0 453.000000 453.000000"
 preserveAspectRatio="xMidYMid meet">

<g transform="translate(0.000000,453.000000) scale(0.100000,-0.100000)"
fill="#000000" stroke="none">
<path d="M2195 4367 c-22 -13 -227 -131 -455 -261 l-415 -239 -37 22 -38 22 0
-44 c0 -40 -3 -46 -35 -63 -19 -10 -35 -21 -35 -24 0 -3 16 -14 35 -24 l35
-19 -2 -540 -3 -539 -415 -239 c-228 -131 -422 -239 -431 -239 -8 0 -24 7 -35
15 -29 22 -34 18 -34 -24 0 -35 -4 -41 -42 -64 l-42 -25 42 -21 42 -21 2 -586
3 -586 455 -263 455 -263 3 -46 3 -45 35 21 c34 20 37 20 70 4 19 -9 37 -16
39 -16 3 0 5 18 5 39 l0 39 113 65 c61 35 246 142 410 237 164 95 306 174 316
177 16 4 83 -33 656 -364 l190 -110 3 -46 3 -46 35 21 c34 20 37 20 70 4 19
-9 37 -16 39 -16 3 0 5 18 5 39 0 40 1 40 93 94 50 30 257 150 460 267 l367
214 0 586 0 585 36 20 36 21 -36 19 c-33 18 -36 24 -36 62 0 24 -3 43 -7 43
-5 0 -22 -9 -40 -20 l-32 -19 -420 242 -421 242 0 542 0 542 30 18 c29 17 39
33 21 33 -4 0 -19 10 -33 23 -18 17 -24 32 -23 59 l2 37 -39 -20 -39 -20 -107
62 c-59 34 -127 74 -152 89 -179 108 -639 370 -651 370 -7 0 -32 -11 -54 -23z
m438 -366 c287 -168 365 -217 355 -227 -20 -18 -731 -427 -743 -427 -6 0 -47
20 -91 45 -149 84 -497 285 -617 356 l-58 34 383 219 c211 121 388 218 393
217 6 -2 176 -99 378 -217z m-920 -535 c166 -95 336 -193 377 -218 l75 -44 3
-493 2 -493 -52 30 c-29 16 -201 116 -383 220 l-330 191 -3 490 c-1 270 0 491
3 491 4 0 142 -78 308 -174z m1367 -321 c0 -272 -4 -495 -8 -495 -4 0 -174
-97 -377 -215 l-370 -215 -3 487 c-1 299 1 490 7 496 9 9 742 436 749 437 1 0
2 -223 2 -495z m-1383 -837 c203 -116 372 -214 376 -218 5 -4 -162 -105 -371
-224 l-379 -217 -381 218 c-214 123 -375 221 -369 225 7 3 176 101 377 217
201 116 368 211 372 211 5 0 173 -95 375 -212z m1848 -2 c198 -114 364 -211
368 -215 4 -5 -126 -86 -290 -181 -488 -284 -450 -264 -480 -251 -14 6 -187
105 -384 218 l-359 207 82 47 c46 26 214 125 373 218 172 102 298 170 310 168
11 -2 182 -97 380 -211z m-2635 -603 l335 -192 3 -495 c1 -273 -1 -496 -5
-496 -5 1 -177 99 -383 218 l-375 218 -3 497 -2 498 47 -28 c27 -15 199 -114
383 -220z m1258 -254 l-3 -491 -355 -205 c-195 -112 -367 -211 -382 -219 l-28
-15 0 494 0 495 378 216 c207 119 380 216 385 216 4 0 6 -221 5 -491z m328
400 c88 -51 248 -143 358 -206 109 -63 207 -119 217 -126 18 -11 19 -31 19
-504 0 -271 -2 -493 -5 -493 -5 0 -604 345 -707 407 l-58 34 0 490 c0 271 4
489 9 489 4 0 80 -41 167 -91z m1510 75 c-3 -9 -6 -230 -6 -492 l0 -477 -371
-215 c-204 -118 -375 -216 -380 -218 -5 -2 -9 191 -9 490 l0 493 373 217 c204
120 378 217 386 218 8 0 11 -6 7 -16z"/>
</g>
</svg>
