<?xml version="1.0" standalone="no"?>
<!DOCTYPE svg PUBLIC "-//W3C//DTD SVG 20010904//EN"
 "http://www.w3.org/TR/2001/REC-SVG-20010904/DTD/svg10.dtd">
<svg version="1.0" xmlns="http://www.w3.org/2000/svg"
 width="50.000000pt" height="50.000000pt" viewBox="0 0 50.000000 50.000000"
 preserveAspectRatio="xMidYMid meet">

<g transform="translate(0.000000,50.000000) scale(0.100000,-0.100000)"
fill="#000000" stroke="none">
<path d="M384 472 c-72 -25 -93 -41 -171 -129 -111 -127 -126 -149 -114 -171
12 -22 78 -82 90 -82 10 0 141 108 203 168 51 49 82 111 93 185 7 47 7 47 -21
47 -16 -1 -52 -9 -80 -18z m-14 -107 c26 -32 -13 -81 -47 -59 -23 14 -28 41
-13 59 16 19 44 19 60 0z"/>
<path d="M55 264 c-29 -38 -29 -39 0 -48 16 -5 29 4 58 39 l38 45 -34 0 c-28
0 -40 -7 -62 -36z"/>
<path d="M70 144 c0 -20 54 -74 74 -74 22 0 21 3 -25 49 -46 46 -49 47 -49 25z"/>
<path d="M253 111 c-33 -28 -41 -41 -37 -59 8 -28 12 -28 52 6 27 22 33 34 30
59 l-3 31 -42 -37z"/>
<path d="M21 84 c-12 -15 -21 -40 -21 -55 0 -24 4 -29 25 -29 36 0 71 19 84
46 8 19 8 24 -4 24 -7 0 -16 -9 -20 -19 -5 -18 -52 -38 -62 -27 -11 11 8 55
27 61 23 7 27 25 6 25 -8 0 -24 -12 -35 -26z"/>
</g>
</svg>
